<svg xmlns="http://www.w3.org/2000/svg" xmlns:cc="http://web.resource.org/cc/" xmlns:svg="http://www.w3.org/2000/svg" xmlns:xlink="http://www.w3.org/1999/xlink" id="svg3571" width="16" height="16" x="0" y="0" enable-background="new 0 0 16 16" version="1.1" viewBox="0 0 16 16" xml:space="preserve"><g id="layer1" transform="translate(-426.2809,-512.191)"><path id="rect2525" fill="#E7C78D" stroke="#000" stroke-linecap="round" stroke-linejoin="round" stroke-width=".161" d="M428.049,514.826l10.582-1.194c0.748-0.084,1.454,0.659,1.576,1.661l1.172,9.597c0.123,1.002-0.385,1.883-1.133,1.967 l-10.582,1.195c-0.748,0.084-1.454-0.66-1.576-1.662l-1.172-9.597C426.794,515.791,427.301,514.911,428.049,514.826z"/><linearGradient id="rect3428_1_" x1="2512.929" x2="2448.055" y1="-2195.002" y2="-2125.791" gradientTransform="matrix(0.1479 -0.0167 -0.018 -0.1477 28.7962 242.2114)" gradientUnits="userSpaceOnUse"><stop offset="0" stop-color="#FFF0D2"/><stop offset="1" stop-color="#D9D9B1"/></linearGradient><path id="rect3428" fill="url(#rect3428_1_)" stroke="#000" stroke-linecap="round" stroke-linejoin="round" stroke-width=".161" d="M428.147,513.651l10.582-1.194c0.748-0.084,1.454,0.659,1.575,1.661l1.173,9.598c0.122,1.002-0.386,1.882-1.134,1.967 l-10.581,1.193c-0.748,0.085-1.454-0.658-1.576-1.66l-1.172-9.598C426.892,514.617,427.399,513.736,428.147,513.651z"/><path id="flowRoot3695" fill="#900" stroke="#000" stroke-width=".124" d="M439.689,514.286l0.027,0.252 c-0.22,0.024-0.394,0.086-0.521,0.188c-0.127,0.101-0.24,0.276-0.341,0.526c-0.066,0.168-0.157,0.561-0.273,1.18l-1.579,7.697 l-0.248,0.027l-2.526-5.692l-1.296,6.11l-0.224,0.025l-3.291-7.393c-0.245-0.551-0.398-0.876-0.458-0.976 c-0.101-0.164-0.227-0.279-0.378-0.348s-0.349-0.089-0.593-0.062l-0.026-0.252l3.115-0.341l0.026,0.252l-0.149,0.017 c-0.219,0.024-0.381,0.097-0.486,0.218c-0.104,0.122-0.149,0.26-0.133,0.414c0.016,0.159,0.145,0.514,0.386,1.066l2.191,5 l0.942-4.557l-0.328-0.749l-0.262-0.598c-0.11-0.218-0.229-0.407-0.354-0.567c-0.063-0.081-0.137-0.146-0.221-0.196 c-0.112-0.07-0.221-0.118-0.329-0.143c-0.082-0.019-0.207-0.019-0.376,0l-0.026-0.252l3.276-0.358l0.025,0.252l-0.223,0.024 c-0.232,0.025-0.396,0.099-0.492,0.219c-0.096,0.121-0.135,0.274-0.116,0.46c0.024,0.231,0.159,0.625,0.405,1.181l2.131,4.842 l1.076-5.261c0.124-0.583,0.175-0.983,0.152-1.201c-0.011-0.104-0.051-0.199-0.12-0.283c-0.069-0.084-0.151-0.139-0.246-0.166 c-0.164-0.046-0.372-0.056-0.624-0.028l-0.026-0.252L439.689,514.286z"/></g></svg>